name ./resultDataOpenSim/trcMotMarkerGrf/sub06/grf-02-01.mot
datacolumns 19
datarows 10
range 0.50800000 0.54400000
endheader

                time	     ground_force_vx	     ground_force_vy	     ground_force_vz	     ground_force_px	     ground_force_py	     ground_force_pz	   l_ground_force_vx	   l_ground_force_vy	   l_ground_force_vz	   l_ground_force_px	   l_ground_force_py	   l_ground_force_pz	     ground_torque_x	     ground_torque_y	     ground_torque_z	   l_ground_torque_x	   l_ground_torque_y	   l_ground_torque_z	
          0.50800000	         85.18347800	        564.63203416	        -44.29008732	         -0.73781948	          0.00000000	          0.10204632	          0.00000000	          0.00000000	          0.00000000	          0.00000000	          0.00000000	          0.00000000	          0.00000000	          0.92016099	          0.00000000	          0.00000000	          0.00000000	          0.00000000	
          0.51200000	         91.26589957	        586.12592961	        -46.34797693	         -0.73711410	          0.00000000	          0.10202770	          0.00000000	          0.00000000	          0.00000000	          0.00000000	          0.00000000	          0.00000000	          0.00000000	          0.72431300	          0.00000000	          0.00000000	          0.00000000	          0.00000000	
          0.51600000	         97.48009596	        607.23881050	        -47.47178813	         -0.73643303	          0.00000000	          0.10193609	          0.00000000	          0.00000000	          0.00000000	          0.00000000	          0.00000000	          0.00000000	          0.00000000	          0.64255339	          0.00000000	          0.00000000	          0.00000000	          0.00000000	
          0.52000000	        103.82809051	        627.82185262	        -47.75550537	         -0.73578499	          0.00000000	          0.10178148	          0.00000000	          0.00000000	          0.00000000	          0.00000000	          0.00000000	          0.00000000	          0.00000000	          0.67095904	          0.00000000	          0.00000000	          0.00000000	          0.00000000	
          0.52400000	        110.34569597	        647.71717966	        -47.40402071	         -0.73516894	          0.00000000	          0.10158173	          0.00000000	          0.00000000	          0.00000000	          0.00000000	          0.00000000	          0.00000000	          0.00000000	          0.78997641	          0.00000000	          0.00000000	          0.00000000	          0.00000000	
          0.52800000	        117.08868398	        666.74758867	        -46.68162645	         -0.73457321	          0.00000000	          0.10135604	          0.00000000	          0.00000000	          0.00000000	          0.00000000	          0.00000000	          0.00000000	          0.00000000	          0.96934409	          0.00000000	          0.00000000	          0.00000000	          0.00000000	
          0.53200000	        124.11162115	        684.73696702	        -45.85561161	         -0.73399910	          0.00000000	          0.10111644	          0.00000000	          0.00000000	          0.00000000	          0.00000000	          0.00000000	          0.00000000	          0.00000000	          1.17495604	          0.00000000	          0.00000000	          0.00000000	          0.00000000	
          0.53600000	        131.44475792	        701.52859573	        -45.14900929	         -0.73345498	          0.00000000	          0.10086994	          0.00000000	          0.00000000	          0.00000000	          0.00000000	          0.00000000	          0.00000000	          0.00000000	          1.37598775	          0.00000000	          0.00000000	          0.00000000	          0.00000000	
          0.54000000	        139.07961155	        716.98039994	        -44.70696542	         -0.73294387	          0.00000000	          0.10062199	          0.00000000	          0.00000000	          0.00000000	          0.00000000	          0.00000000	          0.00000000	          0.00000000	          1.55054935	          0.00000000	          0.00000000	          0.00000000	          0.00000000	
          0.54400000	        146.96930987	        730.94914596	        -44.57937149	         -0.73245926	          0.00000000	          0.10037845	          0.00000000	          0.00000000	          0.00000000	          0.00000000	          0.00000000	          0.00000000	          0.00000000	          1.68863751	          0.00000000	          0.00000000	          0.00000000	          0.00000000	
